<svg xmlns="http://www.w3.org/2000/svg" width="16" height="16">
    <defs>
        <filter id="a">
            <feFlood flood-color="#D4D4D4" flood-opacity="1" result="floodOut"/>
            <feComposite in="floodOut" in2="SourceGraphic" operator="atop" result="compOut"/>
            <feBlend in="compOut" in2="SourceGraphic"/>
        </filter>
    </defs>
    <path fill="#FFF" fill-rule="evenodd" d="M14 16H2a2 2 0 0 1-2-2V2a2 2 0 0 1 2-2h12a2 2 0 0 1 2 2v12a2 2 0 0 1-2 2zM8 2.969a1 1 0 0 0-1-1H3a1 1 0 0 0-1 1V7a1 1 0 0 0 1 1h4a1 1 0 0 0 1-1V2.969zM14 9a1 1 0 0 0-1-1H9a1 1 0 0 0-1 1v4a1 1 0 0 0 1 1h4a1 1 0 0 0 1-1V9z" filter="url(#a)"/>
</svg>
