<svg xmlns="http://www.w3.org/2000/svg" width="14" height="18">
    <defs>
        <filter id="a">
            <feFlood flood-color="#D4D4D4" flood-opacity="1" result="floodOut"/>
            <feComposite in="floodOut" in2="SourceGraphic" operator="atop" result="compOut"/>
            <feBlend in="compOut" in2="SourceGraphic"/>
        </filter>
    </defs>
    <path fill="#FFF" fill-rule="evenodd" d="M12.708 14.822c-.197.684-.463 1.259-.81 1.657-.174.199-.352.394-.584.461-1.079.311-3.937.092-4.368.005a1.857 1.857 0 0 1-.438-.133c-.088-.044-.13-.081-.175-.118a.418.418 0 0 1-.096-.14 1.945 1.945 0 0 1-.151-.52 5.49 5.49 0 0 1-.068-.92c0-.174.005-.507.018-.712.017-.271.102-.727.229-.889.191-.243.483-.388.791-.472.307-.083 1.913 0 1.913 0v.928l-.438-.032s-.656-.125-.75.313c-.094.437.088.629.21.758.122.13 2.666.109 2.743.028.117-.121.186-.294.228-.495a3.41 3.41 0 0 0 .058-.679c0-.357-.033-.739-.067-1.084-.01-.104-.043-.332-.096-.412-.093-.14-.24-.239-.416-.314-.264-.112-1.352-.175-1.705-.233-.352-.057-.723-.109-1.052-.192-.244-.062-.437-.361-.594-.493-.237-.2-.392-.451-.506-.655-.057-.102-.103-.193-.146-.262a.534.534 0 0 0-.068-.089.185.185 0 0 0-.044-.034.135.135 0 0 0-.062-.016h-.001a.102.102 0 0 0-.061.021.157.157 0 0 0-.033.037.292.292 0 0 0-.029.078 1.197 1.197 0 0 0-.029.195c-.026.271-.035.69-.099 1.036a1.317 1.317 0 0 1-.139.429.364.364 0 0 1-.101.115.209.209 0 0 1-.121.037H5.65c-.157 0-.47-.022-.856-.063a21.318 21.318 0 0 1-1.972-.301 7.692 7.692 0 0 1-.859-.224 2.582 2.582 0 0 1-.307-.125.742.742 0 0 1-.186-.123c-.098-.098-.2-.26-.298-.467-.173-.362-.334-.862-.477-1.412-.216-.826-.544-1.6-.664-2.415s.456-.883.456-.883 3.55.055 3.697 0c.132-.049.616.018.688-.108.072-.125.109-.44.109-.63l.004-3.755c0-.479.457-.543.576-.544.15-.002.755-.002.966.027.212.028.401.074.548.144.159.075.282.186.38.312.146.188.231.411.278.587.076.286 3.143.827 3.143.827l.554.072c1.332.115 1.332.643 1.409 1.646.071.935.213 2.689.213 4.563 0 1.705.05 4.299-.344 5.668zm-1.841-7.345s-.449-1.376-1.346-1.436c-.897-.059-2.004 1.735-1.226 1.855.777.12.478-.18 1.076-.209.599-.031.838.179 1.287.209.448.03.209-.269.209-.419zm-7.57-2.493c-.719 0-3.295-.023-3.295-.023L3.944.968l.024 3.201s.048.815-.671.815z" filter="url(#a)"/>
</svg>
