<svg xmlns="http://www.w3.org/2000/svg" width="16" height="16">
    <defs>
        <filter id="a">
            <feFlood flood-color="#D4D4D4" flood-opacity="1" result="floodOut"/>
            <feComposite in="floodOut" in2="SourceGraphic" operator="atop" result="compOut"/>
            <feBlend in="compOut" in2="SourceGraphic"/>
        </filter>
    </defs>
    <path fill="#FFF" fill-rule="evenodd" d="M14 16H2a2 2 0 0 1-2-2V2a2 2 0 0 1 2-2h12a2 2 0 0 1 2 2v12a2 2 0 0 1-2 2zM11.178 5.096c.163-.157 1.799-.101 1.799-.101l-.011-1.977c-.704 0-.497-.035-1.231-.035-.716 0-1.129.114-1.597.342-.468.229-.681.508-.855.872-.175.363-.262.805-.262 1.543v.257h-1.01l-.032 1.961H8.99v5.036h1.998V7.958h1.824l.246-1.961h-2.029s-.165-.597.149-.901z" filter="url(#a)"/>
</svg>
