<svg xmlns="http://www.w3.org/2000/svg" width="16" height="16">
    <defs>
        <filter id="a">
            <feFlood flood-color="#D4D4D4" flood-opacity="1" result="floodOut"/>
            <feComposite in="floodOut" in2="SourceGraphic" operator="atop" result="compOut"/>
            <feBlend in="compOut" in2="SourceGraphic"/>
        </filter>
    </defs>
    <path fill="#FFF" fill-rule="evenodd" d="M12.574 15.998H3.428a3.422 3.422 0 0 1-3.422-3.422V3.469A3.422 3.422 0 0 1 3.428.047h9.146a3.422 3.422 0 0 1 3.422 3.422v9.107a3.422 3.422 0 0 1-3.422 3.422zM3 13h2V6.969H3V13zm.984-9c-.63 0-1.14.455-1.14 1.016 0 .56.51 1.015 1.14 1.015.63 0 1.141-.455 1.141-1.015C5.125 4.455 4.614 4 3.984 4zM12 9.312c0-1.781-.375-2.718-2.063-2.718-.996 0-1.636.618-1.999 1.127v-.815H6.063v6.063h1.875V9.023c.054-.58.275-1.055 1.062-1.055 1.312 0 1 1.157 1 1.157v3.812h2V9.312z" filter="url(#a)"/>
</svg>
