<svg xmlns="http://www.w3.org/2000/svg" width="16" height="17">
    <defs>
        <filter id="a">
            <feFlood flood-color="#D4D4D4" flood-opacity="1" result="floodOut"/>
            <feComposite in="floodOut" in2="SourceGraphic" operator="atop" result="compOut"/>
            <feBlend in="compOut" in2="SourceGraphic"/>
        </filter>
    </defs>
    <path fill="#FFF" fill-rule="evenodd" d="M7.991 16.03a7.986 7.986 0 0 1-2.243-.325c.575-.658.969-2.122.969-2.122l.375-1.807s.716.931 1.897.931c1.18 0 4.15-.734 4.382-4.902.233-4.168-3.434-5.187-5.17-5.187-1.735 0-5.044 1.073-5.437 4.042-.394 2.97.983 3.757 1.323 4.007.34.251.519-.035.519-.035l.376-1.02s-1.396-.841-.501-3.184c.894-2.343 3.416-2.397 3.685-2.397.268 0 3.309-.089 3.273 3.184-.035 3.274-1.645 4.15-2.45 4.168-.805.018-1.235-.447-1.324-.93-.09-.483.125-1.145.572-2.54.448-1.396-.214-2.2-.948-2.2-.733 0-1.395.733-1.52 1.699-.125.966.268 1.628.268 1.628s-.93 3.792-1.091 4.579c-.112.549-.077 1.351-.045 1.791a7.998 7.998 0 1 1 3.09.62z" filter="url(#a)"/>
</svg>
