<svg xmlns="http://www.w3.org/2000/svg" width="17" height="14">
    <defs>
        <filter id="a">
            <feFlood flood-color="#D4D4D4" flood-opacity="1" result="floodOut"/>
            <feComposite in="floodOut" in2="SourceGraphic" operator="atop" result="compOut"/>
            <feBlend in="compOut" in2="SourceGraphic"/>
        </filter>
    </defs>
    <path fill="#FFF" fill-rule="evenodd" d="M.458 6.343c0 1.585 1.367 2.401 2.863 2.701-.274.075-.383.337-1.415.244.417 1.299 1.593 1.745 3.025 1.771-1.12.877-2.561 1.153-4.094 1.153-.264 0-.524-.016-.78-.046 1.448.928 3.167 1.842 5.014 1.842 6.016 0 8.937-4.468 8.937-8.79 0-.142-.004-.283-.01-.423.639-.461 1.616-1.1 2.055-1.756-.587.261-1.27.014-1.932.093.675-.405 1.487-.916 1.598-2.106-.632.375-1.492.881-2.237 1.027-.596-.635-1.447-1.157-2.387-1.157-1.807 0-3.005 1.677-3.005 3.483 0 .257-.002.413.054.652C5.425 4.895 2.54 4.003.927 2.024a3.262 3.262 0 0 0-.443 1.645c0 1.135.871 2.136 1.748 2.722-.536-.017-.43.327-1.774-.048z" filter="url(#a)"/>
</svg>
