<svg xmlns="http://www.w3.org/2000/svg" width="46" height="49">
    <path fill="#DDD" fill-rule="evenodd" d="M28.487 28.46l16.58 8.643v11.05H.511V37.276l16.713-8.759v-4.334c-1.656-2.547-2.77-5.532-2.77-6.98 0-.945.059-1.809.171-2.599.027-.63.129-1.684.429-2.921l.256-3.119.435-1.219 1.632-.687.014-.021-.689-1.293.174-1.044 1.044.087.87-.696.957-.261.313.625c1.168-.826 2.576-1.531 4.299-2.017l-.261.783L27.839.906l-.87 2.002.957 1.827.435.435.609.087.261.348 2.175 3.045-1.392 1.306.609.696 1.828 1.479-.261.87-1.132 1.566-.048.002c.119.801.184 1.675.184 2.634 0 1.501-1.143 4.541-2.833 7.099v4.158h.126z" opacity=".502"/>
</svg>
